<?xml version="1.0" encoding="UTF-8" standalone="no"?>
<svg
   xmlns:dc="http://purl.org/dc/elements/1.1/"
   xmlns:cc="http://creativecommons.org/ns#"
   xmlns:rdf="http://www.w3.org/1999/02/22-rdf-syntax-ns#"
   xmlns:svg="http://www.w3.org/2000/svg"
   xmlns="http://www.w3.org/2000/svg"
   xmlns:sodipodi="http://sodipodi.sourceforge.net/DTD/sodipodi-0.dtd"
   xmlns:inkscape="http://www.inkscape.org/namespaces/inkscape"
   viewBox="0 0 24 24"
   id="vector"
   version="1.1"
   sodipodi:docname="add_image.svg"
   inkscape:version="0.92.3 (2405546, 2018-03-11)">
  <metadata
     id="metadata867">
    <rdf:RDF>
      <cc:Work
         rdf:about="">
        <dc:format>image/svg+xml</dc:format>
        <dc:type
           rdf:resource="http://purl.org/dc/dcmitype/StillImage" />
        <dc:title />
      </cc:Work>
    </rdf:RDF>
  </metadata>
  <defs
     id="defs865" />
  <sodipodi:namedview
     pagecolor="#ffffff"
     bordercolor="#666666"
     borderopacity="1"
     objecttolerance="10"
     gridtolerance="10"
     guidetolerance="10"
     inkscape:pageopacity="0"
     inkscape:pageshadow="2"
     inkscape:window-width="3373"
     inkscape:window-height="1385"
     id="namedview863"
     showgrid="false"
     inkscape:snap-object-midpoints="false"
     inkscape:snap-midpoints="false"
     inkscape:zoom="50.166667"
     inkscape:cx="8.2823922"
     inkscape:cy="12"
     inkscape:window-x="67"
     inkscape:window-y="27"
     inkscape:window-maximized="1"
     inkscape:current-layer="vector" />
  <path
     d="M 5 3 C 3.9 3 3 3.9 3 5 L 3 19 C 3 20.1 3.9 21 5 21 L 19 21 C 20.1 21 21 20.1 21 19 L 21 5 C 21 3.9 20.1 3 19 3 L 5 3 z M 10.554688 4.8632812 L 13.445312 4.8632812 L 13.445312 7.375 L 15.957031 7.375 L 15.957031 10.265625 L 13.445312 10.265625 L 13.445312 12.777344 L 10.554688 12.777344 L 10.554688 10.265625 L 8.0429688 10.265625 L 8.0429688 7.375 L 10.554688 7.375 L 10.554688 4.8632812 z M 14.5 12 L 19 18 L 5 18 L 8.5 13.5 L 11 16.509766 L 14.5 12 z "
     id="path" />
</svg>
