<?xml version="1.0" encoding="UTF-8" standalone="no"?>
<svg
   xmlns:dc="http://purl.org/dc/elements/1.1/"
   xmlns:cc="http://creativecommons.org/ns#"
   xmlns:rdf="http://www.w3.org/1999/02/22-rdf-syntax-ns#"
   xmlns:svg="http://www.w3.org/2000/svg"
   xmlns="http://www.w3.org/2000/svg"
   xmlns:sodipodi="http://sodipodi.sourceforge.net/DTD/sodipodi-0.dtd"
   xmlns:inkscape="http://www.inkscape.org/namespaces/inkscape"
   xml:space="preserve"
   width="19.3306in"
   height="10.6907in"
   style="shape-rendering:geometricPrecision; text-rendering:geometricPrecision; image-rendering:optimizeQuality; fill-rule:evenodd; clip-rule:evenodd"
   viewBox="0 0 16.7764 9.27808"
   version="1.1"
   id="svg11"
   sodipodi:docname="openbook.svg"
   inkscape:version="0.92.3 (2405546, 2018-03-11)"><metadata
   id="metadata15"><rdf:RDF><cc:Work
       rdf:about=""><dc:format>image/svg+xml</dc:format><dc:type
         rdf:resource="http://purl.org/dc/dcmitype/StillImage" /></cc:Work></rdf:RDF></metadata><sodipodi:namedview
   pagecolor="#ffffff"
   bordercolor="#666666"
   borderopacity="1"
   objecttolerance="10"
   gridtolerance="10"
   guidetolerance="10"
   inkscape:pageopacity="0"
   inkscape:pageshadow="2"
   inkscape:window-width="1853"
   inkscape:window-height="1025"
   id="namedview13"
   showgrid="false"
   inkscape:zoom="0.4599013"
   inkscape:cx="661.36306"
   inkscape:cy="499.75432"
   inkscape:window-x="67"
   inkscape:window-y="27"
   inkscape:window-maximized="1"
   inkscape:current-layer="svg11" />
 <defs
   id="defs4">
  <style
   type="text/css"
   id="style2">
   <![CDATA[
    .fil0 {fill:#1F1A17}
    .fil1 {fill:#1F1A17;fill-rule:nonzero}
   ]]>
  </style>
 </defs>
 <g
   id="Layer_x0020_1">
  <metadata
   id="CorelCorpID_0Corel-Layer" />
  <path
   id="svg_3"
   class="fil0"
   d="M8.40487 8.31453c0.317301,0.0238049 0.66217,0.0844565 1.04076,0.191109 2.89473,-0.535492 4.62531,-0.417079 7.01165,0.345466l0.319153 -0.265851 -1.74085 -6.90879 -0.353625 -0.0580071 -0.136197 -0.531063c-0.0205897,-0.0807561 -0.0898483,-0.136129 -0.168435,-0.142901 -0.138681,-0.126042 -0.304799,-0.240345 -0.491941,-0.341882 -0.710261,-0.385333 -1.75229,-0.605587 -2.75418,-0.602611 -1.01432,0.00302387 -1.99725,0.236033 -2.57462,0.758865 -0.0371031,0.0335906 -0.0725661,0.0683566 -0.106239,0.104168 -0.0159018,-0.00431542 -0.0325451,-0.00667643 -0.0498136,-0.00667643 -0.0147401,0 -0.0289677,0.00175282 -0.0427545,0.0048997 -0.0332079,-0.0352067 -0.0681106,-0.0693645 -0.104609,-0.102419 -0.577371,-0.522805 -1.56026,-0.755814 -2.57457,-0.758811 -1.00186,-0.00300337 -2.04387,0.217251 -2.75413,0.602564 -0.187186,0.101558 -0.353229,0.21586 -0.491938,0.341902 -0.078566,0.00681994 -0.147893,0.0621653 -0.168483,0.142901l-0.136197 0.531063 -0.353649 0.0580071 -1.7742 7.04126 0.173762 0.191286c1.94914,-0.639916 3.82845,-0.868538 5.86221,-0.612746 0.417134,0.0525197 0.857208,0.122263 1.32818,0.209375 0.378616,-0.106652 0.723419,-0.167304 1.04072,-0.191109zm7.39891 -1.25726c-0.00492703,-0.00117196 -0.00979597,-0.00251135 -0.0146718,-0.00409675l-0.00343389 -0.00111729c-0.313888,-0.102706 -0.627243,-0.193623 -0.938818,-0.272698 -0.0366589,-0.00930054 -0.0733964,-0.0185157 -0.110011,-0.0275018 -0.349747,-0.0857208 -0.700472,-0.157491 -1.05005,-0.215006 -1.56189,-0.256961 -3.08758,-0.225731 -4.40507,0.11503 -0.190203,0.0492122 -0.376129,0.104797 -0.557127,0.166969 -0.0496769,0.0170259 -0.101513,0.0124508 -0.145364,-0.00871968 -0.0271602,0.0722756 -0.0969518,0.12375 -0.178733,0.12375 -0.0776366,0 -0.148539,-0.0480471 -0.177318,-0.120364 -0.0378377,0.0163187 -0.0809782,0.0206272 -0.123295,0.00976864 -0.18463,-0.047702 -0.36556,-0.117555 -0.551161,-0.16607 -1.32216,-0.345801 -2.85567,-0.378664 -4.42572,-0.120364 -0.349577,0.057515 -0.700301,0.129285 -1.05005,0.215006 -0.123066,0.0301567 -0.246406,0.0621448 -0.370033,0.0960293 -0.225656,0.0618783 -0.452139,0.129989 -0.67882,0.204171l-0.00343389 0.00111729c-0.00486894,0.0015854 -0.00971739,0.00292478 -0.0146376,0.00409675l-0.345951 1.46432c1.6955,-0.851153 4.31485,-0.777371 5.90094,-0.600052 0.308165,0.0344448 0.573135,0.0762767 0.775061,0.123046 0.0302319,-0.0169747 0.0660468,-0.034397 0.108535,-0.0522566 0.274079,-0.115153 0.593396,-0.18777 0.960272,-0.176758 0.366876,-0.0110124 0.6862,0.061605 0.960279,0.176758 0.0425084,0.0178596 0.078296,0.0352819 0.108525,0.0522839 1.35356,-0.313601 5.52964,-0.407488 6.67601,0.476979l-0.345917 -1.46432zm-7.21241 -0.597353c0.00294528,-0.00116855 0.00594182,-0.00231318 0.00898619,-0.00336555 1.49417,-0.513156 3.29911,-0.601101 5.14783,-0.296951 0.357688,0.0588544 0.717887,0.132613 1.0785,0.220995 0.246194,0.0603407 0.491165,0.127115 0.73409,0.200054l-1.35044 -5.26508c-0.0364402,-0.0395392 -0.0769054,-0.0781765 -0.120849,-0.115836 -0.108432,-0.092937 -0.238763,-0.180028 -0.386751,-0.260319 -0.657424,-0.35667 -1.63052,-0.560492 -2.57153,-0.557694 -0.928537,0.00275394 -1.81664,0.205483 -2.31864,0.660058 -0.0716196,0.0648441 -0.135473,0.135569 -0.190162,0.212112 0.00894519,0.0499844 -0.00255235,0.101431 -0.0310109,0.142675l-2.05008e-005 5.06335zm-0.381739 -0.00329038l-0.000218675 -7.51697e-005c-1.49417,-0.513156 -3.29908,-0.601128 -5.1478,-0.296951 -0.357688,0.0588544 -0.717887,0.132613 -1.0785,0.220995 -0.246215,0.0603407 -0.491063,0.12704 -0.734042,0.199979l1.35035 -5.26488c0.0366589,-0.0398331 0.0771993,-0.0787607 0.121457,-0.116663 0.108313,-0.0926945 0.238541,-0.179515 0.386246,-0.259643 0.657396,-0.356643 1.63049,-0.560465 2.57147,-0.557639 0.928516,0.00272661 1.81656,0.205435 2.31859,0.66001 0.071664,0.0648919 0.135445,0.135589 0.190135,0.212201 -0.00794065,0.0445107 0.000293845,0.090084 0.0223391,0.128673l-2.73344e-005 5.07399z" />
  <path
   class="fil1"
   d="M8.18779 6.62307l-0.00480061 -0.175033 0.350065 -0.0095978 0.00479719 0.175033c0.019978,0.699423 -0.659252,0.866296 -1.44844,1.06013 -0.831383,0.204168 -1.80581,0.443535 -1.97342,1.43149l-0.0288173 0.172986 -0.345972 -0.0576381 0.0288173 -0.172986c0.206262,-1.21585 1.30131,-1.48486 2.23564,-1.71432 0.641713,-0.157614 1.19405,-0.293329 1.18214,-0.71007z"
   id="path8" />
 </g>
<path
   style="fill:#ffffff;stroke:#000000;stroke-width:0.11842781;stroke-miterlimit:4;stroke-dasharray:none;stroke-opacity:1"
   d="m 3.2596254,1.40912 c 1.2722052,-0.42152396 2.3000468,-0.61337137 3.2827227,0 L 6.326121,3.4141362 C 5.1700993,3.055396 4.0387651,3.0790066 2.9057992,3.4337932 Z"
   id="rect4527"
   inkscape:connector-curvature="0"
   sodipodi:nodetypes="ccccc" /><path
   style="fill:none;fill-opacity:1;stroke:#000000;stroke-width:0.11842775;stroke-linecap:butt;stroke-linejoin:miter;stroke-miterlimit:4;stroke-dasharray:none;stroke-opacity:1"
   d="M 2.9092392,4.0296745 C 4.8159703,3.5382489 6.1329908,3.9903604 6.1329908,3.9903604"
   id="path4534"
   inkscape:connector-curvature="0" /><path
   style="clip-rule:evenodd;fill:none;fill-opacity:1;fill-rule:evenodd;stroke:#000000;stroke-width:0.11842775;stroke-linecap:butt;stroke-linejoin:miter;stroke-miterlimit:4;stroke-dasharray:none;stroke-opacity:1;image-rendering:optimizeQuality;shape-rendering:geometricPrecision;text-rendering:geometricPrecision"
   d="M 2.7694147,4.6952756 C 4.6761456,4.20385 5.9931661,4.6559615 5.9931661,4.6559615"
   id="path4534-3"
   inkscape:connector-curvature="0" /><path
   style="clip-rule:evenodd;fill:none;fill-opacity:1;fill-rule:evenodd;stroke:#000000;stroke-width:0.11842775;stroke-linecap:butt;stroke-linejoin:miter;stroke-miterlimit:4;stroke-dasharray:none;stroke-opacity:1;image-rendering:optimizeQuality;shape-rendering:geometricPrecision;text-rendering:geometricPrecision"
   d="M 2.8283857,4.3611064 C 4.7351166,3.8696808 6.0521371,4.3217923 6.0521371,4.3217923"
   id="path4534-6"
   inkscape:connector-curvature="0" /><path
   style="clip-rule:evenodd;fill:#ffffff;fill-rule:evenodd;stroke:#000000;stroke-width:0.11842781;stroke-miterlimit:4;stroke-dasharray:none;stroke-opacity:1;image-rendering:optimizeQuality;shape-rendering:geometricPrecision;text-rendering:geometricPrecision"
   d="M 9.0581591,1.449983 C 10.330364,1.0284592 10.906093,1.0331819 12.124654,1.1747848 l 0.226055,1.0418222 0.226056,1.0418221 C 11.361772,3.056945 10.387694,3.2574687 9.1171294,3.5139703 Z"
   id="rect4527-7"
   inkscape:connector-curvature="0"
   sodipodi:nodetypes="cccccc" /><path
   style="clip-rule:evenodd;fill:#ffffff;fill-rule:evenodd;stroke:#000000;stroke-width:0.11842781;stroke-miterlimit:4;stroke-dasharray:none;stroke-opacity:1;image-rendering:optimizeQuality;shape-rendering:geometricPrecision;text-rendering:geometricPrecision"
   d="M 11.009799,3.1324188 C 12.282003,2.710895 12.857732,2.7156177 14.076293,2.8572206 l 0.226055,1.0418222 0.226056,1.041822 C 13.313411,4.7393807 12.496589,4.8809334 11.226025,5.137435 Z"
   id="rect4527-7-5"
   inkscape:connector-curvature="0"
   sodipodi:nodetypes="cccccc" /><path
   style="clip-rule:evenodd;fill:none;fill-opacity:1;fill-rule:evenodd;stroke:#000000;stroke-width:0.09145872;stroke-linecap:butt;stroke-linejoin:miter;stroke-miterlimit:4;stroke-dasharray:none;stroke-opacity:1;image-rendering:optimizeQuality;shape-rendering:geometricPrecision;text-rendering:geometricPrecision"
   d="M 8.9614105,4.1507163 C 10.043761,3.634392 10.752049,3.8735261 10.752049,3.8735261"
   id="path4534-35"
   inkscape:connector-curvature="0"
   sodipodi:nodetypes="cc" /><path
   style="clip-rule:evenodd;fill:none;fill-opacity:1;fill-rule:evenodd;stroke:#000000;stroke-width:0.09145872;stroke-linecap:butt;stroke-linejoin:miter;stroke-miterlimit:4;stroke-dasharray:none;stroke-opacity:1;image-rendering:optimizeQuality;shape-rendering:geometricPrecision;text-rendering:geometricPrecision"
   d="M 9.0536605,4.7681943 C 10.136011,4.25187 10.844299,4.4910041 10.844299,4.4910041"
   id="path4534-35-6"
   inkscape:connector-curvature="0"
   sodipodi:nodetypes="cc" /><path
   style="clip-rule:evenodd;fill:none;fill-opacity:1;fill-rule:evenodd;stroke:#000000;stroke-width:0.09145872;stroke-linecap:butt;stroke-linejoin:miter;stroke-miterlimit:4;stroke-dasharray:none;stroke-opacity:1;image-rendering:optimizeQuality;shape-rendering:geometricPrecision;text-rendering:geometricPrecision"
   d="M 9.0340034,4.434025 C 10.116354,3.9177008 10.824642,4.1568349 10.824642,4.1568349"
   id="path4534-35-2"
   inkscape:connector-curvature="0"
   sodipodi:nodetypes="cc" /><path
   style="fill:#ffe6d5;fill-opacity:1;stroke:none;stroke-width:28.48437309;stroke-miterlimit:4;stroke-dasharray:none;stroke-opacity:1"
   d="m 1708.3268,723.76416 c -18.7081,-5.80177 -73.7395,-19.88892 -104.3702,-26.71711 -221.1258,-49.29325 -445.9031,-46.87136 -620.59022,6.68666 -13.86028,4.24947 -26.92014,8.21463 -29.02191,8.81145 -3.63416,1.03196 -3.78625,-12.69829 -3.10408,-280.21127 0.39453,-154.71302 1.49447,-284.49758 2.44431,-288.41013 0.94984,-3.91255 5.9627,-11.82487 11.1397,-17.58294 34.46339,-38.331585 97.1136,-65.284723 181.2984,-77.997482 35.7644,-5.400791 142.2438,-5.352425 179.5132,0.08154 109.0003,15.892472 193.2092,47.412417 235.9932,88.333782 l 10.3821,9.93007 73.3779,287.0181 c 40.3578,157.85996 73.8242,288.2412 74.3699,289.73608 1.1374,3.11602 -2.1248,3.20767 -11.4323,0.32125 z M 1272.851,569.57962 c 93.6433,-18.50843 133.2509,-23.72205 193.0325,-25.40922 46.0727,-1.30025 84.045,0.9162 125.6479,7.33412 12.3007,1.89756 22.8066,3.00852 23.3463,2.46877 1.2818,-1.28182 -50.946,-241.59553 -52.9086,-243.44632 -3.5717,-3.36818 -71.1033,-8.89713 -121.5765,-9.9537 -48.0973,-1.00685 -54.9689,-1.58197 -55.852,-4.67459 -0.5539,-1.93959 -9.073,-41.19764 -18.9314,-87.24013 -9.8585,-46.04249 -18.189,-84.07263 -18.5123,-84.51143 -0.3234,-0.4388 -18.0045,-2.76197 -39.2913,-5.1626 -27.6117,-3.11391 -53.6589,-4.39998 -90.8886,-4.4876 -55.9655,-0.13171 -75.9423,1.92022 -124.6032,12.79868 -28.7166,6.41979 -93.4527,25.57102 -96.01355,28.40424 -1.51923,1.6808 3.67155,233.38151 5.35655,239.10158 0.4769,1.6187 16.1796,-0.65723 47.9127,-6.94438 89.9034,-17.81217 157.8791,-27.75102 161.5908,-23.62648 1.0247,1.13879 6.473,45.61246 12.1072,98.8304 11.7101,110.60869 12.0269,113.06774 14.5681,113.06774 1.0342,0 16.7912,-2.94709 35.0154,-6.54908 z m -237.6052,-50.31208 c 49.3324,-19.78174 113.3061,-27.77822 153.3508,-19.16831 8.6973,1.86997 11.9004,0.2738 11.9793,-5.96956 0.117,-9.26197 -69.9312,-11.27934 -108.1931,-3.11593 -27.1376,5.78998 -51.0443,13.21262 -75.4215,23.41709 -17.65098,7.38887 -18.23805,7.86101 -15.9683,12.84258 2.2936,5.03391 2.5655,5.08268 10.2059,1.83039 4.3173,-1.83772 15.1384,-6.26404 24.0469,-9.83626 z m -2.1743,-36.96445 c 49.3323,-19.78175 113.306,-27.77822 153.3507,-19.16831 8.6973,1.86996 11.9004,0.2738 11.9793,-5.96956 0.117,-9.26197 -69.9312,-11.27934 -108.193,-3.11593 -27.1377,5.78998 -51.0444,13.21261 -75.4216,23.41709 -17.65096,7.38886 -18.23802,7.86101 -15.96827,12.84258 2.29357,5.0339 2.56557,5.08267 10.20597,1.83039 4.3172,-1.83772 15.1383,-6.26404 24.0469,-9.83626 z m -16.3225,-27.9979 c 53.5706,-21.88072 112.1631,-30.7342 155.7556,-23.53507 8.3234,1.37457 15.5127,2.10843 15.9763,1.63078 0.4636,-0.47764 1.1806,-2.81669 1.5933,-5.19785 1.2375,-7.14067 -18.732,-10.11926 -60.1323,-8.96923 -27.0137,0.75042 -39.8934,2.17879 -57.6211,6.39028 -25.7936,6.12767 -70.3021,21.79703 -82.28136,28.96739 -1.31915,0.78961 2.07008,9.46947 3.69754,9.46947 0.86635,0 11.22172,-3.94011 23.01202,-8.75577 z"
   id="path4637"
   inkscape:connector-curvature="0"
   transform="matrix(0.00904029,0,0,0.00904029,0,-1.5182042e-5)" /><path
   style="fill:#ffe6d5;fill-opacity:1;stroke:none;stroke-width:28.48437309;stroke-miterlimit:4;stroke-dasharray:none;stroke-opacity:1"
   d="m 140.32039,721.26853 c 0.7236,-2.69079 34.14335,-133.07203 74.26611,-289.73608 l 72.95049,-284.84372 11.33188,-10.70855 c 42.73676,-40.385911 128.86674,-72.549225 234.2058,-87.458914 39.27273,-5.558662 145.13927,-5.636566 180.4735,-0.132805 30.49526,4.750027 64.32387,12.670754 86.61991,20.281429 38.19902,13.039104 80.95687,39.93754 98.30888,61.84491 l 7.5038,9.47376 0.59024,286.56302 c 0.32463,157.60967 0.25138,286.56303 -0.16275,286.56303 -0.41414,0 -8.01827,-2.47216 -16.89809,-5.4937 -8.87979,-3.02154 -33.26833,-9.78799 -54.19673,-15.03657 -163.10161,-40.90372 -354.92996,-41.25971 -553.37961,-1.02696 -42.70203,8.65722 -97.42359,21.97839 -124.71226,30.35938 -17.44657,5.35826 -18.50549,5.31766 -16.90117,-0.64823 z M 342.81645,518.41631 c 52.42436,-11.16874 82.13265,-14.41942 142.42186,-15.58384 45.28781,-0.87469 64.36945,-0.34175 89.14957,2.4899 26.53008,3.03163 73.89098,11.89123 83.7107,15.65941 1.61702,0.6205 3.71442,-1.72363 5.10094,-5.70099 1.78114,-5.10942 1.71187,-6.9711 -0.28445,-7.64275 -56.52293,-19.01673 -168.22884,-25.79433 -251.60566,-15.26586 -42.38677,5.35243 -100.95828,16.85362 -105.03418,20.62469 -0.96313,0.8911 -1.08292,4.28263 -0.26619,7.53672 1.2827,5.11069 2.26165,5.71647 7.1871,4.44746 3.13618,-0.808 16.46532,-3.76214 29.62031,-6.56474 z m 6.52314,-36.96445 c 52.42436,-11.16874 82.13265,-14.41942 142.42186,-15.58384 45.28781,-0.87469 64.36944,-0.34175 89.14957,2.4899 26.53008,3.03163 73.89098,11.89123 83.7107,15.6594 1.61702,0.62051 3.71442,-1.72363 5.10094,-5.70098 1.78114,-5.10942 1.71187,-6.9711 -0.28445,-7.64275 -56.52294,-19.01673 -168.22884,-25.79434 -251.60566,-15.26586 -42.38677,5.35243 -100.95828,16.85362 -105.03418,20.62469 -0.96313,0.8911 -1.08292,4.28263 -0.26619,7.53672 1.2827,5.11068 2.26165,5.71647 7.1871,4.44746 3.13617,-0.808 16.46531,-3.76214 29.62031,-6.56474 z m 14.13347,-37.50903 c 57.8665,-12.19485 83.47156,-14.59604 154.38095,-14.47765 67.814,0.11329 100.57812,3.3512 141.30943,13.96515 16.9816,4.42515 18.18116,4.21217 20.55395,-3.64934 1.29558,-4.29251 0.23366,-5.14646 -10.0839,-8.10907 -68.56413,-19.68766 -171.67793,-23.61874 -263.8647,-10.05949 -30.767,4.52535 -81.48366,15.07733 -84.2729,17.53361 -0.96313,0.84814 -1.07922,4.2193 -0.25796,7.49144 1.16335,4.63517 2.51079,5.72849 6.09991,4.94952 2.53369,-0.5499 18.79454,-3.98979 36.13522,-7.64417 z m -22.46129,-62.2141 c 116.98087,-33.66838 241.66686,-33.02198 353.60753,1.83317 7.9832,2.48573 10.63183,2.62698 11.30713,0.60298 0.48501,-1.45375 6.35097,-53.86593 13.03542,-116.47154 9.28065,-86.92109 11.56138,-114.54194 9.64833,-116.847 -4.12221,-4.96698 -49.60355,-26.22059 -69.04833,-32.26658 -41.34296,-12.85481 -98.19253,-15.81775 -151.49255,-7.89564 -51.87024,7.70961 -151.94358,35.68874 -154.13372,43.09367 -1.43854,4.86371 -40.47325,229.37576 -40.47325,232.78593 0,3.32276 -2.03645,3.68016 27.54944,-4.83499 z"
   id="path4639"
   inkscape:connector-curvature="0"
   transform="matrix(0.00904029,0,0,0.00904029,0,-1.5182042e-5)" /><path
   style="fill:#ffe6d5;fill-opacity:1;stroke:none;stroke-width:28.48437309;stroke-miterlimit:4;stroke-dasharray:none;stroke-opacity:1"
   d="m 74.280575,940.28876 c 0,-1.25098 37.349745,-158.67105 37.707735,-158.9289 1.18294,-0.85203 38.82474,-12.53626 57.96497,-17.99266 138.47969,-39.47708 265.29392,-57.72943 400.08584,-57.58428 92.73907,0.0999 167.43199,8.02023 242.44332,25.70849 26.01726,6.13507 81.60855,22.62889 84.29346,25.00968 3.3505,2.97103 -15.16921,18.10184 -32.10835,26.23289 -18.79901,9.02381 -42.85369,16.41276 -98.93427,30.38994 -64.7353,16.13424 -100.60343,28.20174 -131.54996,44.25879 l -17.39504,9.02566 -35.87726,-1.76122 c -48.59426,-2.3855 -162.11305,-0.23593 -208.74044,3.95267 -113.19443,10.1684 -202.88943,30.61585 -276.689804,63.07597 -11.660111,5.12855 -21.200201,9.00438 -21.200201,8.61297 z"
   id="path4641"
   inkscape:connector-curvature="0"
   transform="matrix(0.00904029,0,0,0.00904029,0,-1.5182042e-5)" /><path
   style="fill:#ffe6d5;fill-opacity:1;stroke:none;stroke-width:28.48437309;stroke-miterlimit:4;stroke-dasharray:none;stroke-opacity:1"
   d="m 1776.8198,935.52646 c -11.1171,-7.94803 -39.3985,-20.74676 -63.057,-28.53638 -53.3477,-17.56484 -120.1058,-29.06117 -217.438,-37.44474 -44.057,-3.79479 -197.2129,-5.13727 -253.4349,-2.22147 -75.5626,3.91884 -149.0395,11.74886 -184.2054,19.62969 -8.7252,1.95535 -11.3789,1.56132 -22.4451,-3.33265 -59.11148,-26.14192 -153.38201,-26.22481 -212.25895,-0.18664 l -12.12792,5.36355 -30.12636,-5.11686 c -16.5695,-2.81427 -41.75572,-6.32899 -55.96939,-7.81048 l -25.84302,-2.69362 11.70956,-4.03286 c 6.44026,-2.21808 39.59598,-11.26448 73.67938,-20.10312 34.0834,-8.83864 67.80995,-18.10776 74.9479,-20.59803 33.80952,-11.79542 62.0456,-30.98157 73.11682,-49.68219 12.52734,-21.16021 15.62751,-24.65024 20.75365,-23.36365 2.78679,0.69944 13.8034,-1.57402 25.15792,-5.19177 65.92121,-21.00362 134.58801,-34.21394 216.98141,-41.74357 37.9795,-3.47079 150.8612,-3.49639 191.3454,-0.0434 123.0552,10.49569 237.6543,33.29166 352.3819,70.0955 l 7.7427,2.48381 18.7554,79.62664 c 10.3155,43.79465 18.573,79.78786 18.3499,79.9849 -0.2231,0.197 -3.8302,-2.09017 -8.0159,-5.08268 z"
   id="path4643"
   inkscape:connector-curvature="0"
   transform="matrix(0.00904029,0,0,0.00904029,0,-1.5182042e-5)" /><path
   style="fill:#d5f6ff;fill-opacity:1;stroke:none;stroke-width:28.48437309;stroke-miterlimit:4;stroke-dasharray:none;stroke-opacity:1"
   d="m 1247.7915,553.84131 c -2.2351,-9.71544 -21.9937,-201.49459 -20.8748,-202.61341 2.2921,-2.29211 68.9391,-20.55197 94.3706,-25.85552 42.0728,-8.77401 64.8043,-11.03599 109.8061,-10.9267 36.0297,0.0875 116.5177,5.87038 119.3882,8.57778 2.5086,2.36603 46.9512,213.96069 44.9317,213.92335 -1.2807,-0.0237 -14.0702,-1.42215 -28.4211,-3.10771 -83.1869,-9.77058 -160.7875,-4.89531 -273.9719,17.2123 -21.5263,4.20462 -40.2558,7.65319 -41.6211,7.66352 -1.3652,0.0109 -2.9887,-2.18282 -3.6077,-4.87361 z"
   id="path4651"
   inkscape:connector-curvature="0"
   transform="matrix(0.00904029,0,0,0.00904029,0,-1.5182042e-5)" /><path
   style="fill:#d5f6ff;fill-opacity:1;stroke:none;stroke-width:28.48437309;stroke-miterlimit:4;stroke-dasharray:none;stroke-opacity:1"
   d="m 1014.9283,353.39099 c -0.6872,-14.42581 -1.7667,-47.26588 -2.3989,-72.97792 -0.6323,-25.71203 -1.7472,-62.08054 -2.4777,-80.8189 l -1.3282,-34.06975 21.4704,-6.61136 c 33.6613,-10.36534 71.1018,-19.57922 100.7697,-24.79879 23.891,-4.20323 34.6067,-4.77299 87.0406,-4.62805 54.4472,0.15051 112.731,4.18188 116.6152,8.06602 1.7444,1.74447 36.277,162.46942 35.1496,163.59685 -0.5211,0.52109 -12.6211,2.94238 -26.889,5.38064 -49.0438,8.38121 -134.2063,32.7608 -132.2498,37.85935 0.7851,2.04575 -5.0872,3.48736 -22.4173,5.50342 -28.5804,3.32483 -84.5251,12.64472 -134.7225,22.44358 l -37.3126,7.28367 z"
   id="path4653"
   inkscape:connector-curvature="0"
   transform="matrix(0.00904029,0,0,0.00904029,0,-1.5182042e-5)" /><path
   style="fill:#d5f6ff;fill-opacity:1;stroke:none;stroke-width:28.48437309;stroke-miterlimit:4;stroke-dasharray:none;stroke-opacity:1"
   d="m 330.99377,367.0773 c 0.075,-1.62285 8.14741,-48.44951 17.93863,-104.05926 l 17.80223,-101.10865 21.74379,-7.31669 c 30.36006,-10.21603 92.59235,-25.59494 121.45491,-30.01407 30.0667,-4.60349 87.30678,-5.13112 110.11652,-1.01503 33.46748,6.03932 95.6727,30.47158 95.6727,37.57724 0,5.36828 -22.05667,205.11069 -22.72305,205.77708 -0.39302,0.39302 -14.76591,-2.71846 -31.93977,-6.9144 -100.23628,-24.48982 -198.50832,-23.80526 -302.24614,2.10545 -11.53203,2.88038 -22.53982,5.84047 -24.46177,6.57798 -2.17464,0.8345 -3.44294,0.22655 -3.35805,-1.60965 z"
   id="path4655"
   inkscape:connector-curvature="0"
   transform="matrix(0.00904029,0,0,0.00904029,0,-1.5182042e-5)" /></svg>